<?xml version="1.0" encoding="UTF-8" standalone="no"?>
<svg width="16px" height="16px" viewBox="0 0 16 16" version="1.1" xmlns="http://www.w3.org/2000/svg">
    <g id="Page-1" stroke="none" stroke-width="1" fill="none" fill-rule="evenodd">
        <g transform="translate(-246.000000, -17.000000)" fill="#8D7F6D">
            <path d="M255.846411,28.0771804 C254.817862,28.8498377 253.539323,29.3076923 252.153846,29.3076923 C248.755171,29.3076923 246,26.5525215 246,23.1538462 C246,19.7551708 248.755171,17 252.153846,17 C255.552522,17 258.307692,19.7551708 258.307692,23.1538462 C258.307692,24.5393228 257.849838,25.8178619 257.07718,26.8464112 L262,31.7692308 L260.769231,33 L255.846411,28.0771804 Z M252.153846,28.0769231 C254.872786,28.0769231 257.076923,25.8727865 257.076923,23.1538462 C257.076923,20.4349058 254.872786,18.2307692 252.153846,18.2307692 C249.434906,18.2307692 247.230769,20.4349058 247.230769,23.1538462 C247.230769,25.8727865 249.434906,28.0769231 252.153846,28.0769231 Z"/>
        </g>
    </g>
</svg>