<?xml version="1.0" encoding="UTF-8" standalone="no"?>
<svg width="24px" height="24px" viewBox="0 0 24 24" version="1.1" xmlns="http://www.w3.org/2000/svg" xmlns:xlink="http://www.w3.org/1999/xlink">
    <defs>
        <rect id="path-1" x="0" y="0" width="320" height="47" rx="4"/>
        <mask id="mask-2" maskContentUnits="userSpaceOnUse" maskUnits="objectBoundingBox" x="0" y="0" width="320" height="47" fill="white">
            <use xlink:href="#path-1"/>
        </mask>
    </defs>
    <g id="Page-1" stroke="none" stroke-width="1" fill="none" fill-rule="evenodd">
        <g id="搜索首页" transform="translate(-311.000000, -278.000000)">
            <g id="Group-20" transform="translate(28.000000, 266.000000)">
                <g id="Rectangle-2-+-Oval-3-+-Rectangle-4-+-搜索优质文章、资料、学霸秘籍...">
                    <use id="Rectangle-2" stroke="#796C5C" mask="url(#mask-2)" stroke-width="2" fill="#FFFCF8"
                         xlink:href="#path-1"/>
                    <g id="Oval-3-+-Rectangle-4" transform="translate(283.000000, 12.000000)" fill-opacity="0.780966938" fill="#E55C3C">
                        <path d="M16.0682893,19.0875089 C14.4494664,20.1004222 12.5300433,20.6868504 10.4719505,20.6868504 C4.68845196,20.6868504 0,16.0559412 0,10.3434252 C0,4.6309092 4.68845196,0 10.4719505,0 C16.2554491,0 20.9439011,4.6309092 20.9439011,10.3434252 C20.9439011,12.3762583 20.350186,14.2721238 19.3246865,15.8710784 L23.3252728,19.8225643 C24.2246825,20.7109354 24.2250266,22.1509296 23.3255996,23.0393176 C22.4263703,23.9275104 20.9679305,23.9270154 20.0688755,23.0389948 L16.0682893,19.0875089 Z M10.4213614,17.7886926 C14.5564232,17.7886926 17.9085531,14.4777044 17.9085531,10.3933934 C17.9085531,6.30908248 14.5564232,2.99809426 10.4213614,2.99809426 C6.28629962,2.99809426 2.93416972,6.30908248 2.93416972,10.3933934 C2.93416972,14.4777044 6.28629962,17.7886926 10.4213614,17.7886926 Z"
                              id="Oval-3"/>
                    </g>
                </g>
            </g>
        </g>
    </g>
</svg>