<?xml version="1.0" encoding="UTF-8" standalone="no"?>
<svg width="241px" height="37px" viewBox="0 0 241 37" version="1.1" xmlns="http://www.w3.org/2000/svg">
    <g id="Page-1" stroke="none" stroke-width="1" fill="none" fill-rule="evenodd">
        <g transform="translate(-67.000000, -199.000000)">
            <path d="M82.1477633,200.015625 L82.4446383,200.015625 C84.6217325,201.994802 86.056614,204.023427 86.7493258,206.101562 L99.2180758,204.46875 L100.108701,205.507812 L99.9602633,205.953125 C99.9602633,206.447919 99.0201685,206.79427 97.1399508,206.992188 C97.1399508,206.497393 96.7441214,206.25 95.9524508,206.25 C88.8274152,207.239588 84.4732921,208.773427 82.8899508,210.851562 L82.1477633,212.039062 L82.1477633,212.335938 C84.3248575,215.799496 85.3639096,218.174473 85.2649508,219.460938 L86.8977633,219.3125 L88.6790133,219.460938 C89.5696428,219.460938 90.1139082,219.807288 90.3118258,220.5 L88.5305758,221.835938 L85.5618258,221.6875 L85.1165133,222.132812 L84.9680758,223.171875 L84.5227633,225.695312 L87.4915133,225.101562 C88.6790192,225.497398 89.2727633,225.893227 89.2727633,226.289062 C88.283175,227.674486 86.5019428,228.26823 83.9290133,228.070312 L83.7805758,231.039062 L81.9993258,232.375 L81.1087008,232.375 C79.9211949,232.276041 79.0800575,231.335946 78.5852633,229.554688 L78.4368258,227.625 L78.4368258,227.03125 L78.7337008,227.03125 L78.5852633,225.25 L78.7337008,223.765625 C78.8326596,220.79686 79.3274464,217.679704 80.2180758,214.414062 L79.7727633,214.414062 C76.2102455,218.075539 72.5983025,220.351558 68.9368258,221.242188 L68.4915133,221.09375 C67.7988015,220.895832 67.4524508,220.697918 67.4524508,220.5 C67.5514096,219.807288 68.5409831,219.213544 70.4212008,218.71875 C74.9733069,215.057273 77.6946339,212.088553 78.5852633,209.8125 L78.2883883,209.8125 L72.4993258,211.742188 C70.2232728,210.752599 69.0852633,210.010419 69.0852633,209.515625 C71.6581928,208.328119 75.3196146,207.437503 80.0696383,206.84375 C80.7623501,205.953121 81.1581795,204.518239 81.2571383,202.539062 L81.4055758,200.90625 L82.1477633,200.015625 Z M92.9837008,209.515625 C94.5670421,209.713543 96.3482742,211.989562 98.3274508,216.34375 L98.3274508,216.9375 C97.5357802,219.411471 96.199856,225.150997 94.3196383,234.15625 C94.0227618,234.15625 93.7258898,234.453122 93.4290133,235.046875 L93.2805758,235.34375 L92.6868258,235.34375 L90.9055758,233.265625 L91.2024508,230.742188 L91.3508883,221.09375 L91.3508883,219.609375 L91.7962008,217.382812 L91.4993258,216.640625 L91.9446383,215.601562 L91.7962008,213.671875 L92.0930758,213.671875 L91.7962008,212.484375 C91.3014067,212.385416 90.7571413,212.533852 90.1633883,212.929688 L87.7883883,212.929688 C86.6008824,212.830729 85.9576596,212.533857 85.8587008,212.039062 L85.8587008,211.742188 C87.5410009,210.851558 89.6685838,210.257814 92.2415133,209.960938 C92.3404721,209.664061 92.5878655,209.515625 92.9837008,209.515625 L92.9837008,209.515625 Z M120.15242,199.71875 C120.845132,200.114585 122.230535,202.19269 124.30867,205.953125 C126.188888,204.270825 127.128983,202.736986 127.128983,201.351562 L127.27742,201.351562 C130.147226,205.111998 131.582108,207.239581 131.582108,207.734375 C131.087314,208.13021 129.35556,208.87239 126.386795,209.960938 L124.753983,211.296875 L124.753983,212.1875 L133.80867,211.296875 C135.293053,211.69271 136.084711,212.039061 136.18367,212.335938 L136.18367,212.78125 L135.58992,213.226562 L132.769608,213.226562 C127.128955,213.523439 124.30867,213.919268 124.30867,214.414062 L124.30867,214.859375 L126.386795,218.273438 L126.386795,218.71875 C124.30866,220.104174 123.269608,221.291662 123.269608,222.28125 C122.181061,230.593792 121.339923,234.75 120.74617,234.75 L120.449295,234.75 C119.954501,234.75 119.60815,233.908863 119.410233,232.226562 L119.707108,231.78125 L119.707108,231.632812 L119.410233,231.335938 L119.707108,227.773438 L119.707108,223.46875 L119.410233,223.46875 C113.274785,226.635433 109.316492,228.21875 107.535233,228.21875 L107.386795,227.921875 L107.386795,227.179688 L110.207108,224.953125 C111.097737,223.567701 113.9675,221.044289 118.816483,217.382812 L119.707108,216.34375 L119.707108,214.859375 L119.410233,214.859375 C117.035221,214.859375 113.522235,215.997384 108.87117,218.273438 C108.475335,218.273438 107.832112,217.580736 106.941483,216.195312 L106.941483,215.75 L107.535233,215.304688 L107.832108,215.453125 C113.57172,214.463537 116.441483,213.721357 116.441483,213.226562 C118.717536,212.039057 119.855545,211.049483 119.855545,210.257812 L119.707108,209.960938 L119.707108,205.359375 L119.410233,201.945312 C119.60815,200.46093 119.855544,199.71875 120.15242,199.71875 L120.15242,199.71875 Z M114.80867,206.84375 C115.204506,207.239585 115.996164,208.278637 117.18367,209.960938 C117.18367,211.247402 116.936277,211.890625 116.441483,211.890625 L115.699295,211.890625 C115.402419,211.890625 114.808675,210.356786 113.918045,207.289062 L114.21492,206.84375 L114.80867,206.84375 Z M127.27742,218.71875 L127.87117,218.71875 C132.91807,222.182309 137.668023,224.705721 142.12117,226.289062 L142.269608,226.4375 L142.269608,226.734375 C142.269608,227.526046 140.537854,227.921875 137.074295,227.921875 L135.58992,228.960938 L135.144608,228.960938 C130.889378,226.19009 128.761795,223.96355 128.761795,222.28125 C128.464919,222.28125 127.970132,221.143241 127.27742,218.867188 L127.27742,218.71875 Z M159.19614,200.609375 L159.641452,200.609375 L163.649265,205.65625 C166.222194,207.140632 171.714327,209.169258 180.125827,211.742188 L180.422702,212.039062 L180.422702,212.335938 C179.828949,212.731773 178.443546,213.127602 176.266452,213.523438 L175.22739,214.710938 C170.97216,213.721349 168.052918,212.632818 166.469577,211.445312 L158.157077,212.335938 L157.118015,211.445312 C152.961744,214.908871 149.993024,216.591146 148.211765,216.492188 L147.618015,215.75 L147.618015,215.304688 L158.157077,203.578125 L159.19614,201.648438 L159.19614,200.609375 Z M157.711765,210.851562 L157.563327,211.296875 L157.711765,211.296875 L164.688327,210.40625 L164.688327,210.257812 L162.16489,207.4375 L161.719577,207.4375 C159.641442,209.713553 158.305518,210.851562 157.711765,210.851562 L157.711765,210.851562 Z M165.72739,212.039062 L167.360202,213.078125 L168.547702,216.195312 L168.547702,216.789062 C166.271649,218.966157 163.896673,219.95573 161.422702,219.757812 L159.938327,219.164062 L158.453952,220.203125 L157.118015,220.203125 C156.524262,220.104166 155.881039,218.125019 155.188327,214.265625 L155.336765,214.265625 C156.722188,214.859378 157.711762,216.145823 158.305515,218.125 L162.907077,216.789062 C163.698748,215.601557 164.094577,214.661462 164.094577,213.96875 L164.243015,213.820312 L158.899265,215.007812 C157.315923,214.611977 156.524265,214.265626 156.524265,213.96875 L165.72739,212.039062 Z M170.180515,220.351562 C172.357609,222.528657 173.841969,224.557282 174.63364,226.4375 C174.63364,227.723965 173.792502,228.960932 172.110202,230.148438 L172.110202,230.890625 L172.85239,230.890625 C175.128443,231.088543 176.266452,231.632808 176.266452,232.523438 L176.118015,232.671875 L175.672702,233.117188 L163.797702,232.078125 C158.453925,231.781249 153.703973,232.028642 149.547702,232.820312 C147.568526,232.028642 146.578952,231.33594 146.578952,230.742188 C147.766458,230.346352 149.745605,230.098959 152.516452,230 L152.516452,229.703125 C151.922699,228.515619 151.378434,226.388036 150.88364,223.320312 L151.032077,223.171875 L151.328952,223.171875 L151.774265,223.765625 C155.237824,222.776037 161.373179,221.638027 170.180515,220.351562 L170.180515,220.351562 Z M165.578952,223.320312 L164.391452,223.023438 C164.391452,223.419273 164.144059,223.567709 163.649265,223.46875 L163.649265,223.765625 C164.243018,223.864584 164.53989,224.161456 164.53989,224.65625 C164.144054,227.822933 163.352396,229.356771 162.16489,229.257812 L162.16489,229.703125 L164.53989,230 L166.024265,229.703125 C168.498235,225.843731 169.735202,223.567712 169.735202,222.875 L169.735202,221.984375 L169.586765,221.984375 L165.578952,223.320312 Z M158.899265,223.765625 L159.19614,224.953125 L158.899265,229.40625 L159.047702,229.40625 C160.532085,228.911456 161.81853,227.179702 162.907077,224.210938 L162.75864,223.46875 L162.610202,223.46875 L158.899265,223.765625 Z M153.25864,224.953125 L153.25864,225.398438 L155.188327,228.8125 L155.188327,229.257812 L154.891452,229.554688 L154.891452,229.851562 L157.711765,230 L157.563327,228.367188 L158.305515,223.914062 L158.00864,223.765625 L153.25864,224.953125 Z M184.880484,229.40625 C184.880484,228.218744 185.622664,227.575521 187.107047,227.476562 C188.195594,227.67448 188.888295,228.317703 189.185172,229.40625 L189.185172,231.484375 C188.690377,232.671881 187.799761,233.315104 186.513297,233.414062 C185.721626,233.315104 185.127882,232.770838 184.732047,231.78125 C184.633088,231.682291 184.633088,231.632812 184.732047,231.632812 C185.226841,232.127607 185.820585,232.424479 186.513297,232.523438 C187.601844,232.424479 188.195588,231.731777 188.294547,230.445312 C187.99767,230.841148 187.601841,231.039062 187.107047,231.039062 C185.622664,231.039062 184.880484,230.494797 184.880484,229.40625 L184.880484,229.40625 Z M217.541391,200.90625 C219.025773,201.895838 219.767953,202.539061 219.767953,202.835938 L219.767953,203.28125 C218.976283,204.369797 216.551828,204.914062 212.494516,204.914062 L212.197641,205.0625 L212.197641,205.359375 L214.275766,209.664062 L209.080453,216.195312 L209.228891,217.828125 L208.486703,225.546875 L208.486703,229.851562 C208.486703,232.226574 208.140353,233.414062 207.447641,233.414062 C205.072629,233.414062 203.637748,231.731788 203.142953,228.367188 L203.439828,228.070312 C203.043993,224.111959 202.697642,222.132812 202.400766,222.132812 C199.827836,224.408866 197.650775,225.546875 195.869516,225.546875 C194.583051,225.447916 193.939828,224.804693 193.939828,223.617188 C197.799223,220.153629 200.471071,216.937515 201.955453,213.96875 L201.807016,209.070312 L201.955453,208.03125 L199.135141,208.773438 L198.244516,208.773438 L195.424203,204.914062 L195.424203,204.320312 L195.572641,204.023438 L195.572641,203.875 L195.869516,204.023438 L196.314828,204.023438 C204.62737,202.736973 209.08045,201.747399 209.674203,201.054688 L211.158578,201.648438 L217.541391,200.90625 Z M203.142953,206.992188 L203.142953,207.734375 L204.775766,209.960938 C205.171601,209.565102 206.012739,208.229178 207.299203,205.953125 L203.142953,206.992188 Z M212.642953,216.046875 L213.088266,216.046875 C220.609137,218.12501 226.002312,220.0052 229.267953,221.6875 L230.010141,222.578125 C230.010141,223.072919 228.228909,223.765621 224.666391,224.65625 C224.666391,225.250003 224.468476,225.546875 224.072641,225.546875 C219.619494,223.46874 216.551816,221.341157 214.869516,219.164062 L212.642953,216.195312 L212.642953,216.046875 Z M253.764798,200.90625 L254.358548,200.90625 C254.952301,200.90625 257.030405,202.588525 260.592923,205.953125 C260.197088,206.052084 259.999173,206.695307 259.999173,207.882812 L259.999173,208.773438 L261.186673,208.476562 L263.413235,208.476562 C264.402824,208.575521 264.89761,208.872393 264.89761,209.367188 C264.89761,209.763023 263.908037,210.059895 261.92886,210.257812 L259.999173,209.960938 C259.702296,212.236991 259.355946,213.523436 258.96011,213.820312 L258.96011,214.5625 L262.52261,214.265625 C263.710116,214.760419 264.353339,215.156249 264.452298,215.453125 L264.452298,216.046875 L262.52261,216.492188 L260.444485,216.34375 L255.100735,217.085938 L255.100735,217.382812 C255.892406,217.382812 257.673638,218.421865 260.444485,220.5 L263.561673,220.945312 L263.561673,221.390625 C263.561673,221.687501 262.522621,222.033852 260.444485,222.429688 L260.444485,222.578125 L259.702298,229.109375 C265.243992,229.109375 268.014798,229.703119 268.014798,230.890625 L268.014798,231.039062 L267.569485,231.484375 L266.08511,231.484375 L261.186673,230.59375 C255.249143,230.59375 249.855968,231.187494 245.006985,232.375 C244.710109,232.375 244.561673,232.078128 244.561673,231.484375 C244.660632,230.890622 245.402812,230.395835 246.788235,230 L246.936673,230 L247.233548,230 C251.092942,229.307288 253.121568,228.763023 253.319485,228.367188 C253.616362,228.367188 254.06167,227.625007 254.655423,226.140625 L254.061673,223.46875 L250.796048,223.914062 L249.905423,222.429688 L250.202298,221.984375 L250.350735,221.984375 L251.686673,222.429688 L254.358548,221.835938 L254.358548,220.351562 L253.764798,217.382812 L249.756985,217.976562 L249.163235,217.53125 C249.163235,216.442703 250.548638,215.601565 253.319485,215.007812 L254.061673,213.96875 C253.764796,211.989573 253.517403,211 253.319485,211 L249.756985,211.445312 L249.163235,210.851562 L249.163235,210.40625 C249.163235,210.109374 250.548638,209.812501 253.319485,209.515625 L253.61636,209.367188 L253.319485,208.921875 L253.61636,206.398438 L253.171048,201.351562 L253.764798,200.90625 Z M238.475735,201.945312 C240.65283,201.945312 242.780412,203.231758 244.858548,205.804688 L243.52261,210.851562 L243.52261,211 L245.006985,210.40625 C246.29345,210.802085 246.936673,211.148436 246.936673,211.445312 C246.540838,212.138024 245.501785,212.632811 243.819485,212.929688 C243.522609,213.721358 243.374173,215.106761 243.374173,217.085938 L243.374173,217.53125 L243.52261,217.53125 C243.52261,216.838538 244.462705,216.343751 246.342923,216.046875 L246.788235,217.085938 C246.788235,217.67969 245.650226,218.619785 243.374173,219.90625 L242.33511,229.109375 C242.33511,229.703128 242.533025,230 242.92886,230 C242.92886,231.286465 242.483552,232.276038 241.592923,232.96875 L240.850735,232.96875 C240.256982,232.770832 239.663238,231.434908 239.069485,228.960938 L239.663235,225.101562 L239.36636,223.914062 L238.921048,223.914062 L235.21011,226.140625 L232.24136,221.09375 C232.439278,220.401038 232.785629,220.054688 233.280423,220.054688 L234.764798,220.5 L238.921048,219.3125 L238.624173,214.265625 L238.475735,214.265625 L236.99136,215.007812 C235.704896,214.41406 234.962716,213.869794 234.764798,213.375 L234.764798,212.78125 L235.061673,212.484375 L235.061673,212.335938 L235.655423,212.484375 C237.634599,212.385416 238.624173,212.187501 238.624173,211.890625 L238.624173,208.921875 C238.624173,206.052069 238.426258,203.825529 238.030423,202.242188 L238.17886,201.945312 L238.475735,201.945312 Z M282.121017,199.570312 C284.792906,202.539077 286.12883,204.468746 286.12883,205.359375 L286.12883,206.25 C286.12883,206.546876 285.040299,206.992185 282.863205,207.585938 L280.636642,209.070312 C280.636642,209.466148 280.33977,209.664062 279.746017,209.664062 L279.746017,210.109375 C282.615823,213.07814 284.050705,214.760415 284.050705,215.15625 L285.238205,215.15625 L285.831955,215.898438 C284.644449,216.789067 283.902269,218.372384 283.605392,220.648438 L283.456955,220.945312 L283.456955,221.09375 C284.446543,221.687503 285.337159,222.429683 286.12883,223.320312 L286.12883,223.617188 C285.930912,224.804693 285.386647,225.398438 284.496017,225.398438 C283.803305,224.013014 283.456955,223.02344 283.456955,222.429688 L283.16008,222.429688 C282.764244,222.429688 281.972586,225.101536 280.78508,230.445312 C280.191327,231.731777 279.69654,232.473957 279.300705,232.671875 C278.607993,232.671875 278.162685,231.38543 277.964767,228.8125 L278.41008,225.992188 L278.261642,225.992188 L273.808517,227.773438 L273.66008,227.773438 L273.214767,227.328125 C273.214767,226.239578 274.501213,224.161474 277.074142,221.09375 L278.41008,219.164062 L277.964767,219.164062 C277.568932,219.164062 276.381444,219.906243 274.402267,221.390625 C272.818926,220.598954 272.027267,219.708338 272.027267,218.71875 L272.027267,218.570312 C272.027267,218.174477 274.15485,217.580733 278.41008,216.789062 L278.41008,216.492188 L278.855392,213.671875 L278.41008,211 L278.41008,210.554688 L278.261642,210.554688 L276.62883,210.851562 L276.480392,210.554688 L276.480392,210.40625 C277.272063,209.515621 279.102774,206.348986 281.97258,200.90625 L281.97258,200.3125 L281.675705,200.015625 L281.675705,199.867188 L281.97258,199.570312 L282.121017,199.570312 Z M297.41008,201.351562 C301.269474,204.617204 303.199142,206.843744 303.199142,208.03125 L303.199142,209.664062 C302.605389,213.028663 302.308517,215.403639 302.308517,216.789062 L302.308517,217.828125 L303.199142,218.125 L306.464767,217.828125 L307.058517,218.570312 L307.058517,218.71875 C307.058517,219.312503 305.969986,219.609375 303.792892,219.609375 L302.308517,219.609375 L302.308517,220.054688 L301.863205,229.109375 L301.863205,230.59375 L301.56633,230.890625 L301.863205,231.039062 L301.863205,231.335938 C301.368411,233.216155 300.873624,234.15625 300.37883,234.15625 L299.933517,234.15625 L299.19133,232.375 L298.300705,220.203125 C293.352763,220.500001 289.790299,220.94531 287.613205,221.539062 L287.019455,221.539062 C286.128825,220.94531 285.683517,220.302087 285.683517,219.609375 L285.831955,219.460938 L286.12883,219.460938 L286.277267,219.609375 C287.959567,219.015622 290.680894,218.669271 294.44133,218.570312 L295.331955,218.273438 L298.300705,218.273438 L298.152267,215.601562 L298.152267,214.265625 L297.855392,213.226562 L298.152267,213.078125 L296.964767,201.648438 L297.261642,201.351562 L297.41008,201.351562 Z M291.175705,205.0625 L291.324142,205.0625 C293.105401,205.953129 294.342368,207.04166 295.03508,208.328125 L295.03508,208.773438 L294.144455,209.960938 L293.25383,209.960938 L291.621017,208.773438 L291.917892,207.585938 L291.175705,205.359375 L291.175705,205.0625 Z M289.839767,211 C292.412697,211.890629 293.699142,212.731767 293.699142,213.523438 C293.303307,214.611985 292.956956,215.15625 292.66008,215.15625 L291.917892,215.15625 C291.423098,215.057291 290.581961,213.770846 289.394455,211.296875 L289.542892,211 L289.839767,211 Z"
                  fill="#796C5C"/>
        </g>
    </g>
</svg>