<?xml version="1.0" encoding="UTF-8" standalone="no"?>
<svg width="18px" height="18px" viewBox="0 0 18 18" version="1.1" xmlns="http://www.w3.org/2000/svg">
    <g id="Page-1" stroke="none" stroke-width="1" fill="none" fill-rule="evenodd">
        <g transform="translate(-272.000000, -961.000000)">
            <rect id="Rectangle-115" fill="#FBF6F1" x="0" y="0" width="375" height="1482"/>
            <g transform="translate(20.000000, 867.000000)" stroke="#C3B4A0" fill="#C3B4A0">
                <g transform="translate(0.000000, 32.000000)">
                    <g id="赞" transform="translate(252.000000, 62.000000)">
                        <path d="M5.57104396,7.47601231 L2.43927025,7.47744903 C2.43927025,7.47744903 2.39505951,7.4727797 2.32245325,7.4727797 C2.08953814,7.4727797 1.65066569,7.52270557 1.3332829,7.8592562 C1.08814694,8.1196609 0.976721497,8.48638255 1.0040387,8.94900498 C1.08059876,10.252106 1.44075454,15.3560382 1.44327059,15.3887235 C1.44327059,15.9458099 1.78006297,17 3.05498566,17 L5.68462602,16.9996408 C5.68965814,17 5.70151956,17 5.7058328,17 C5.98583415,17 6.46029086,16.8128678 6.46029086,16.110673 L6.46029086,8.62574397 C6.485092,8.4975171 6.53936697,8.08984905 6.299982,7.78526534 C6.18855656,7.64410804 5.97217554,7.47601231 5.57104396,7.47601231 L5.57104396,7.47601231 Z M5.92868368,8.53379417 C5.92365156,8.55426737 5.9211355,8.5758181 5.9211355,8.59700966 L5.9211355,16.110673 C5.9211355,16.4152568 5.78598723,16.4612317 5.7058328,16.4612317 L5.7058328,16.7306158 L5.69864406,16.4612317 L3.05498566,16.4612317 C2.021964,16.4612317 1.98350426,15.4971955 1.98206651,15.369687 C1.97847214,15.3183244 1.61903524,10.2176248 1.54283462,8.91739723 C1.52450333,8.60850338 1.58632648,8.37683299 1.725788,8.22885128 C1.91053857,8.03238043 2.20455795,8.01154805 2.32245325,8.01154805 C2.35624032,8.01154805 2.37816597,8.01334394 2.41051529,8.01478066 L5.57104396,8.01478066 C5.71913197,8.01478066 5.82085261,8.04926183 5.87548702,8.11750583 C5.96965949,8.23603486 5.94485834,8.46411346 5.92868368,8.53379417 L5.92868368,8.53379417 Z M16.2815447,9.13793308 C16.2445227,9.12141085 16.2067819,9.10668451 16.1694004,9.09231736 C16.4440102,8.92027066 16.7168228,8.63292755 16.7168228,8.13761984 C16.7168228,7.79927332 16.6140239,7.53096668 16.410942,7.34060187 C16.0985913,7.04499763 15.6611566,7.02236936 15.5346349,7.02236936 L13.1443795,7.02236936 C13.1052008,7.02236936 13.0200143,6.97962707 13.0081529,6.97531693 C12.9315928,6.55400008 12.8438902,6.07665132 13.2558049,5.25916015 C13.4596056,4.85436553 13.4509791,4.0343601 13.235317,3.22010154 C13.0333135,2.4496628 12.6699228,1.76542699 12.2098435,1.29346592 C12.2008576,1.28376809 12.1907934,1.27550698 12.1810886,1.26724586 C12.0790085,1.18894486 11.711664,0.939315527 11.2886067,1.01366556 C11.0121998,1.06215471 10.780363,1.23168715 10.5981285,1.51723438 C10.5708113,1.56069502 10.5560743,1.61062089 10.5560743,1.66198347 L10.5531988,3.58897827 C10.5276788,3.83609335 10.4363819,4.33858463 10.2527096,4.65789467 C10.1143264,4.89962207 9.4608701,5.95991818 8.85018681,6.89701593 C8.27688495,7.77664505 8.06373887,8.0481843 7.98645994,8.13295052 C7.73593242,8.41131416 7.22193765,8.4396893 6.93762306,8.42891393 C6.79672379,8.42819557 6.66409158,8.54097775 6.6594189,8.68967781 C6.65474622,8.83837788 6.77192265,8.96265377 6.92072953,8.96768228 C7.3811682,8.98133108 8.01054221,8.91129119 8.38687264,8.49428449 C8.54107107,8.32475205 8.84874906,7.88619461 9.30199899,7.19082427 C9.87709803,6.30760335 10.5593093,5.20743838 10.7210559,4.92584213 C10.9960251,4.44669748 11.0761795,3.77359622 11.0833683,3.67877299 C11.0937919,3.63567152 11.0952297,3.5968802 11.0952297,3.56742753 L11.0952297,1.74531298 C11.1822134,1.62857983 11.2767453,1.5628501 11.3817009,1.54417279 C11.5761563,1.51040998 11.7795975,1.64222863 11.8381858,1.68389338 C12.2270965,2.09012472 12.5372905,2.68312908 12.7141335,3.35730788 C12.9139804,4.11409782 12.8945708,4.77750124 12.7745189,5.01707357 C12.2813715,5.99583607 12.395313,6.61793392 12.4779834,7.07229523 C12.5358528,7.38693594 12.9089483,7.56113771 13.1443795,7.56113771 L15.5346349,7.56113771 C15.6554057,7.56113771 15.8980256,7.5970556 16.0414409,7.73282522 C16.1330973,7.81866898 16.1776675,7.951206 16.1776675,8.13761984 C16.1776675,8.52086373 15.8922746,8.6609435 15.547934,8.79276216 L15.4807193,8.81934139 C15.4070348,8.84879406 15.1816678,8.93858879 15.1971236,9.16523067 C15.2132983,9.39330927 15.4250066,9.44539022 15.6295262,9.49531608 C15.7578452,9.52692383 15.9174352,9.56607433 16.0619288,9.63000817 C16.248836,9.71369685 16.496488,10.1052019 16.4565905,10.4744378 C16.4059099,10.9309541 15.9390014,11.1198822 15.5554822,11.1985424 C15.3143,11.2488275 15.2258786,11.4057886 15.2226436,11.5354522 C15.2208464,11.6388958 15.2646977,11.8245912 15.5889098,11.9072024 C15.6496547,11.9248022 15.8394373,12.117322 15.8505799,12.3712615 C15.8653168,12.7160733 15.5256489,12.9215236 15.2355834,13.0339466 C15.2179709,13.0411302 15.2017963,13.0461587 15.1863405,13.050828 C15.0993568,13.078844 14.9174817,13.1370309 14.8664417,13.3748074 C14.8103695,13.6215633 15.0271099,13.7440433 15.1090616,13.7900182 C15.2391777,13.8636499 15.374326,13.9397958 15.374326,14.2978971 C15.374326,14.4149895 15.3426955,14.5292084 15.2790752,14.6376804 C15.214736,14.7479483 15.0504733,14.8697099 14.961333,14.9354397 C14.7988675,15.056483 14.4333202,15.2080565 14.2503668,15.2464886 L14.2133448,15.2543906 C13.032954,15.4946812 11.5596222,15.7935181 9.35519565,15.7626287 C8.19924658,15.7450289 7.55405734,15.4091967 7.24422274,15.2482845 C7.0627071,15.1538205 6.93151263,15.0862948 6.7801897,15.1638775 C6.65187072,15.2285297 6.61089492,15.3768706 6.66876426,15.50833 C6.72519585,15.6344018 6.88011316,15.6925888 7.01130762,15.6498465 C6.94840617,15.6778625 6.89053683,15.6713973 6.86825174,15.6634953 C6.89772556,15.6739115 6.93906081,15.696899 6.99513296,15.7259924 C7.34198957,15.9063003 8.06409831,16.2816422 9.34692861,16.301397 C9.45727573,16.3028338 9.56474737,16.3035521 9.67114069,16.3035521 C11.7591096,16.3035521 13.1742127,16.0158498 14.3211759,15.7820244 L14.3599951,15.7741224 C14.6087254,15.7213231 15.0497545,15.5413745 15.2826696,15.3678911 C15.44837,15.2457703 15.6338394,15.0992253 15.7452649,14.9088604 C15.8570498,14.7170589 15.9138408,14.5112494 15.9138408,14.2978971 C15.9138408,13.8489235 15.7513753,13.6079145 15.590707,13.4678347 C16.3203639,13.1255372 16.4059099,12.6144256 16.3879381,12.3288784 C16.371404,12.0623677 16.2466794,11.7937019 16.0734308,11.6090839 C16.7901479,11.3350304 16.9590833,10.8346942 16.9921515,10.5333431 C17.0597256,9.918788 16.6798008,9.31572663 16.2815447,9.13793308 L16.2815447,9.13793308 Z"/>
                    </g>
                </g>
            </g>
        </g>
    </g>
</svg>