<?xml version="1.0" encoding="UTF-8" standalone="no"?>
<svg width="18px" height="18px" viewBox="0 0 18 18" version="1.1" xmlns="http://www.w3.org/2000/svg">
    <g id="Page-1" stroke="none" stroke-width="1" fill="none" fill-rule="evenodd">
        <g transform="translate(-321.000000, -961.000000)">
            <rect id="Rectangle-115" fill="#FBF6F1" x="0" y="0" width="375" height="1482"/>
            <g transform="translate(20.000000, 867.000000)" stroke="#C3B4A0" fill="#C3B4A0">
                <g transform="translate(0.000000, 32.000000)">
                    <g id="回复" transform="translate(301.000000, 62.000000)">
                        <path d="M12.1209475,6.14324254 C11.7216756,6.14324254 11.3966868,6.46241245 11.3966868,6.8550454 C11.3966868,7.24767834 11.7216756,7.56684825 12.1209475,7.56684825 C12.5202195,7.56684825 12.8447862,7.24767834 12.8447862,6.8550454 C12.8447862,6.46241245 12.5202195,6.14324254 12.1209475,6.14324254 L12.1209475,6.14324254 Z M12.0297818,6.8550454 C12.0297818,6.80607004 12.070722,6.76581064 12.1209475,6.76581064 C12.170751,6.76581064 12.2116912,6.80607004 12.2116912,6.8550454 C12.2121132,6.95465629 12.0297818,6.95465629 12.0297818,6.8550454 L12.0297818,6.8550454 Z M8.97530929,6.14324254 C8.57645942,6.14324254 8.25104856,6.46241245 8.25104856,6.8550454 C8.25104856,7.24767834 8.57645942,7.56684825 8.97530929,7.56684825 C9.37331504,7.56684825 9.69745971,7.24767834 9.69745971,6.8550454 C9.69745971,6.46241245 9.37331504,6.14324254 8.97530929,6.14324254 L8.97530929,6.14324254 Z M8.88414361,6.8550454 C8.88414361,6.80607004 8.92550582,6.76581064 8.97530929,6.76581064 C9.02426864,6.76581064 9.06436466,6.80607004 9.06436466,6.8550454 C9.06436466,6.95631647 8.88414361,6.95424125 8.88414361,6.8550454 L8.88414361,6.8550454 Z M5.83051518,6.14324254 C5.43082118,6.14324254 5.10583239,6.46241245 5.10583239,6.8550454 C5.10583239,7.24767834 5.43082118,7.56684825 5.83051518,7.56684825 C6.228943,7.56684825 6.55393178,7.24767834 6.55393178,6.8550454 C6.55393178,6.46241245 6.228943,6.14324254 5.83051518,6.14324254 L5.83051518,6.14324254 Z M5.73892743,6.8550454 C5.73892743,6.80607004 5.78028964,6.76581064 5.83051518,6.76581064 C5.88031866,6.76581064 5.92083674,6.80607004 5.92083674,6.8550454 C5.92083674,6.95465629 5.73850537,6.95341115 5.73892743,6.8550454 L5.73892743,6.8550454 Z M15.8232873,1 L2.14125933,1.00124514 C1.50098921,1.02033722 1,1.52793774 1,2.15590143 L1,11.2512062 C1,11.88 1.50098921,12.3876005 2.15054473,12.4066926 L3.86412198,12.4066926 L3.86412198,16.688716 C3.86412198,16.8111543 3.93713894,16.9228016 4.05109605,16.972607 C4.09288032,16.991284 4.13635284,17 4.1806695,17 C4.25621884,17 4.33176818,16.973022 4.39085705,16.9211414 L9.5455169,12.4108431 L15.8232873,12.4071077 C16.4719987,12.4071077 17,11.888716 17,11.2512062 L17,2.15673152 C17,1.51880674 16.4719987,1 15.8232873,1 L15.8232873,1 Z M16.366905,11.2512062 C16.366905,11.5450584 16.1229523,11.7845396 15.8228653,11.7845396 L9.42480677,11.788275 C9.34756918,11.788275 9.2724419,11.816083 9.21461922,11.8671336 L4.49721702,15.9947601 L4.49721702,12.0954086 C4.49721702,11.9235798 4.35540373,11.7841245 4.1806695,11.7841245 L2.16025218,11.7845396 C1.8639637,11.7754086 1.63309504,11.541323 1.63309504,11.2512062 L1.63309504,2.15590143 C1.63309504,1.86619974 1.86438577,1.63252918 2.15054473,1.62339818 L15.8232873,1.62256809 C16.1229523,1.62256809 16.366905,1.86246433 16.366905,2.15673152 L16.366905,11.2512062 L16.366905,11.2512062 Z"/>
                    </g>
                </g>
            </g>
        </g>
    </g>
</svg>